<svg width="100" height="98" viewBox="0 0 100 98" fill="none" xmlns="http://www.w3.org/2000/svg">
<path d="M50 0C22.3892 0 -0.000183105 22.3855 -0.000183105 50.0002C-0.000183105 72.092 14.3264 90.834 34.1931 97.4456C36.6919 97.9083 37.6095 96.3609 37.6095 95.0402C37.6095 93.848 37.5628 89.909 37.5416 85.7311C23.6311 88.7557 20.6959 79.8317 20.6959 79.8317C18.4215 74.0523 15.1444 72.5159 15.1444 72.5159C10.6081 69.4124 15.4863 69.476 15.4863 69.476C20.5073 69.8289 23.1512 74.6287 23.1512 74.6287C27.6106 82.2728 34.848 80.0627 37.7012 78.7854C38.1498 75.5534 39.4459 73.348 40.8756 72.0994C29.7701 70.8347 18.0953 66.5474 18.0953 47.3889C18.0953 41.9303 20.0485 37.4697 23.2472 33.9682C22.728 32.7086 21.0167 27.6233 23.7315 20.7361C23.7315 20.7361 27.9302 19.3923 37.4852 25.8614C41.4733 24.7532 45.7507 24.198 50 24.1791C54.2493 24.198 58.5299 24.7532 62.5258 25.8614C72.0694 19.3923 76.2622 20.7361 76.2622 20.7361C78.9837 27.6233 77.2716 32.7086 76.7524 33.9682C79.9582 37.4697 81.8981 41.9299 81.8981 47.3889C81.8981 66.5929 70.2013 70.8218 59.0675 72.0594C60.8608 73.6111 62.4588 76.6541 62.4588 81.3187C62.4588 88.0086 62.4008 93.3932 62.4008 95.0402C62.4008 96.3707 63.3007 97.9299 65.8355 97.4389C85.6913 90.8199 99.9998 72.0845 99.9998 50.0002C99.9998 22.3855 77.6135 0 50 0Z" fill="white"/>
<path d="M18.7265 71.2265C18.6167 71.4748 18.2253 71.5493 17.8696 71.3791C17.5069 71.2159 17.303 70.8771 17.4206 70.6277C17.5285 70.3721 17.9198 70.3007 18.2818 70.4724C18.6453 70.6352 18.8523 70.9771 18.7265 71.2265ZM21.186 73.421C20.9476 73.6421 20.4813 73.5394 20.1648 73.19C19.8378 72.8414 19.7766 72.3755 20.0186 72.1508C20.2644 71.93 20.7166 72.0332 21.0444 72.3822C21.3715 72.7347 21.435 73.1978 21.1856 73.4214L21.186 73.421ZM22.8734 76.2287C22.5667 76.4416 22.0656 76.242 21.7562 75.7974C21.4499 75.3531 21.4499 74.8197 21.7628 74.606C22.0734 74.3923 22.5667 74.5845 22.8804 75.0256C23.1863 75.4778 23.1863 76.0111 22.873 76.2291L22.8734 76.2287ZM25.7266 79.4808C25.4525 79.7827 24.869 79.7019 24.4416 79.2894C24.0047 78.8863 23.8828 78.3141 24.1576 78.0118C24.4349 77.709 25.0219 77.7941 25.4525 78.2032C25.8866 78.6055 26.0192 79.1819 25.727 79.4808H25.7266ZM29.4143 80.5788C29.2939 80.9701 28.7316 81.1481 28.1654 80.9819C27.5999 80.8105 27.2297 80.3517 27.3438 79.956C27.4615 79.5619 28.0261 79.3764 28.5967 79.5545C29.1614 79.7251 29.5324 80.1803 29.4147 80.5788H29.4143ZM33.6118 81.0442C33.626 81.4568 33.1456 81.7987 32.5511 81.8062C31.9531 81.8191 31.4696 81.4854 31.4633 81.0799C31.4633 80.6635 31.9327 80.3246 32.5303 80.3148C33.1248 80.3031 33.6118 80.6344 33.6118 81.0442ZM37.7348 80.8862C37.8062 81.2885 37.3929 81.7019 36.8027 81.8117C36.2223 81.9175 35.6851 81.6693 35.611 81.2705C35.5388 80.858 35.96 80.445 36.5392 80.338C37.1305 80.2352 37.6595 80.4772 37.7348 80.8862Z" fill="white"/>
</svg>
