<svg width="100" height="93" viewBox="0 0 100 93" fill="none" xmlns="http://www.w3.org/2000/svg">
<path d="M49.9999 92.1175L68.4128 35.4487H31.5866L49.9995 92.1175H49.9999Z" fill="#E24329"/>
<path d="M49.9999 92.1171L31.5866 35.4482H5.78174L49.9999 92.1171Z" fill="#FC6D26"/>
<path d="M5.78175 35.4482L0.186431 52.6697C-0.0623543 53.4353 -0.0623886 54.26 0.186333 55.0256C0.435055 55.7913 0.919764 56.4585 1.57099 56.9317L49.9998 92.1174L5.78136 35.4486L5.78175 35.4482Z" fill="#FCA326"/>
<path d="M5.78174 35.4485H31.5866L20.4971 1.31709C19.9264 -0.439224 17.4419 -0.438833 16.8716 1.31709L5.78174 35.4485Z" fill="#E24329"/>
<path d="M49.9999 92.1171L68.4128 35.4482H94.218L49.9995 92.1171H49.9999Z" fill="#FC6D26"/>
<path d="M94.2179 35.4482L99.8132 52.6697C100.062 53.4354 100.062 54.2601 99.8132 55.0257C99.5644 55.7913 99.0796 56.4585 98.4283 56.9317L49.9999 92.1174L94.2179 35.4486V35.4482Z" fill="#FCA326"/>
<path d="M94.2181 35.4485H68.4128L79.5027 1.31709C80.0734 -0.439224 82.5579 -0.438833 83.1283 1.31709L94.2181 35.4485Z" fill="#E24329"/>
</svg>
