<svg width="97" height="100" viewBox="0 0 97 100" fill="none" xmlns="http://www.w3.org/2000/svg">
<path d="M96.4938 22.485C96.5296 22.6175 96.5479 22.7541 96.5482 22.8914V44.2255C96.5482 44.4993 96.4759 44.7683 96.3387 45.0052C96.2014 45.2422 96.0041 45.4387 95.7665 45.5749L77.8604 55.8842V76.3181C77.8604 76.8742 77.5649 77.3875 77.0827 77.6675L39.7052 99.1844C39.6196 99.233 39.5263 99.2642 39.433 99.2972C39.398 99.3089 39.3649 99.3303 39.328 99.34C39.0667 99.4088 38.792 99.4088 38.5308 99.34C38.488 99.3283 38.4491 99.305 38.4083 99.2894C38.3227 99.2583 38.2333 99.2311 38.1516 99.1844L0.781899 77.6675C0.5445 77.5312 0.347246 77.3346 0.210016 77.0977C0.0727871 76.8608 0.000432242 76.5919 0.000244141 76.3181L0.000244141 12.3157C0.000244141 12.1757 0.0196883 12.0396 0.0546877 11.9074C0.0663542 11.8626 0.093576 11.8218 0.109131 11.7771C0.138298 11.6954 0.165519 11.6118 0.208296 11.536C0.237463 11.4854 0.28024 11.4446 0.315239 11.3979C0.359961 11.3357 0.400794 11.2715 0.453293 11.2171C0.498014 11.1724 0.556347 11.1393 0.606901 11.1004C0.663289 11.0538 0.713844 11.0032 0.77801 10.9663H0.779954L19.4658 0.207802C19.7024 0.0716552 19.9706 0 20.2435 0C20.5165 0 20.7847 0.0716552 21.0213 0.207802L39.7071 10.9663H39.711C39.7732 11.0051 39.8257 11.0538 39.8821 11.0985C39.9327 11.1374 39.9891 11.1724 40.0338 11.2151C40.0882 11.2715 40.1271 11.3357 40.1738 11.3979C40.2068 11.4446 40.2516 11.4854 40.2788 11.536C40.3235 11.6138 40.3488 11.6954 40.3799 11.7771C40.3955 11.8218 40.4227 11.8626 40.4343 11.9093C40.4701 12.0418 40.4884 12.1784 40.4888 12.3157V52.2909L56.0597 43.3252V22.8894C56.0597 22.7533 56.0791 22.6153 56.1141 22.485C56.1277 22.4383 56.153 22.3975 56.1685 22.3528C56.1997 22.2711 56.2269 22.1875 56.2697 22.1117C56.2988 22.0611 56.3416 22.0203 56.3747 21.9736C56.4213 21.9114 56.4602 21.8472 56.5147 21.7928C56.5594 21.7481 56.6158 21.715 56.6663 21.6761C56.7246 21.6294 56.7752 21.5789 56.8374 21.5419H56.8394L75.5271 10.7835C75.7637 10.6471 76.0319 10.5754 76.3049 10.5754C76.5779 10.5754 76.8461 10.6471 77.0827 10.7835L95.7685 21.5419C95.8346 21.5808 95.8852 21.6294 95.9435 21.6742C95.9921 21.7131 96.0485 21.748 96.0932 21.7908C96.1477 21.8472 96.1865 21.9114 96.2332 21.9736C96.2682 22.0203 96.311 22.0611 96.3382 22.1117C96.3829 22.1875 96.4082 22.2711 96.4393 22.3528C96.4568 22.3975 96.4821 22.4383 96.4938 22.485ZM93.4332 43.3252V25.5844L86.8942 29.3488L77.8604 34.5501V52.2909L93.4352 43.3252H93.4332ZM74.7474 75.4178V57.6653L65.8615 62.7402L40.4868 77.2223V95.142L74.7474 75.4178ZM3.1152 15.0087V75.4178L37.3719 95.1401V77.2242L19.4755 67.0957L19.4697 67.0918L19.4619 67.088C19.4016 67.053 19.3511 67.0024 19.2947 66.9596C19.2461 66.9207 19.1897 66.8896 19.1469 66.8468L19.143 66.841C19.0925 66.7924 19.0575 66.7321 19.0147 66.6777C18.9758 66.6252 18.9291 66.5805 18.898 66.526L18.8961 66.5202C18.8611 66.4619 18.8397 66.3919 18.8144 66.3257C18.7891 66.2674 18.7561 66.213 18.7405 66.1507V66.1488C18.7211 66.0749 18.7172 65.9971 18.7094 65.9213C18.7016 65.863 18.6861 65.8046 18.6861 65.7463V23.9744L9.65426 18.7711L3.1152 15.0106V15.0087ZM20.2455 3.35387L4.67656 12.3157L20.2416 21.2775L35.8086 12.3137L20.2416 3.35387H20.2455ZM28.342 59.2831L37.3738 54.0837V15.0087L30.8348 18.7731L21.801 23.9744V63.0494L28.342 59.2831ZM76.3049 13.9296L60.7379 22.8914L76.3049 31.8532L91.8699 22.8894L76.3049 13.9296ZM74.7474 34.5501L65.7137 29.3488L59.1746 25.5844V43.3252L68.2064 48.5246L74.7474 52.2909V34.5501ZM38.9274 74.5292L61.7607 61.4939L73.1744 54.9801L57.6191 46.0241L39.7091 56.3353L23.3857 65.7327L38.9274 74.5292Z" fill="#FF2D20"/>
</svg>
