<svg width="100" height="100" viewBox="0 0 100 100" fill="none" xmlns="http://www.w3.org/2000/svg">
<g id="spring">
<g id="spring_2">
<path id="Vector" d="M91.0588 5.74594C89.6221 9.23867 87.7643 12.3351 85.7083 15.1094C76.642 5.86979 63.9592 -0.000976562 49.9635 -0.000976562C22.4675 -0.000976562 0 22.3426 0 49.9377C0 64.3545 6.16802 77.3346 15.9526 86.5L17.8105 88.1596C26.4556 95.4671 37.7017 99.9012 49.9387 99.9012C76.1961 99.9012 97.8214 79.4154 99.6792 53.5543C101.165 40.9953 97.3507 24.9188 91.0588 5.74594ZM23.1858 86.9211C21.7491 88.7789 19.0738 88.9771 17.216 87.5404C15.3581 86.1036 15.16 83.4284 16.5967 81.5705C18.0334 79.7127 20.7087 79.5145 22.5665 80.9512C24.3253 82.388 24.6225 85.0632 23.1858 86.9211ZM90.7616 71.9841C78.4999 88.3578 52.1433 82.8091 35.3485 83.6265C35.3485 83.6265 32.3512 83.8247 29.3786 84.2458C29.3786 84.2458 30.5181 83.7256 31.9548 83.2054C43.7954 79.0934 49.369 78.2512 56.5774 74.5603C70.0777 67.6491 83.5532 52.5139 86.2532 36.8585C81.1008 51.8946 65.4454 64.8747 51.2268 70.1262C41.4422 73.7428 23.8299 77.2356 23.8299 77.2356L23.1115 76.8144C11.1718 70.9437 10.7507 44.9835 32.5989 36.6356C42.1853 32.9199 51.2516 34.9759 61.6555 32.5236C72.6786 29.9474 85.4606 21.6986 90.5882 10.8983C96.3103 28.3125 103.321 55.2883 90.7616 71.9841Z" fill="#6CB52D"/>
<path id="Vector_2" d="M23.1858 86.921C21.7491 88.7789 19.0738 88.9771 17.216 87.5403C15.3581 86.1036 15.16 83.4283 16.5967 81.5705C18.0334 79.7126 20.7087 79.5145 22.5666 80.9512C24.3253 82.3879 24.6226 85.0632 23.1858 86.921Z" fill="#6CB52D"/>
</g>
</g>
</svg>
